<svg width="26" height="25" viewBox="0 0 26 25" fill="none" xmlns="http://www.w3.org/2000/svg">
<circle cx="13.1875" cy="12.5" r="12.5" fill="#B1B1B1"/>
<path d="M7.6261 9.70286H10.2799V18.2388H7.6261V9.70286ZM8.95307 5.45981C9.80125 5.45981 10.4906 6.14911 10.4906 6.99872C10.4906 7.84747 9.80125 8.53677 8.95307 8.53677C8.10289 8.53677 7.41558 7.84747 7.41558 6.99872C7.41558 6.14911 8.10289 5.45981 8.95307 5.45981Z" fill="white"/>
<path d="M11.9441 9.70331H14.4888V10.8705H14.5251C14.8793 10.1992 15.7449 9.49194 17.0352 9.49194C19.7217 9.49194 20.2176 11.2593 20.2176 13.5576V18.2392H17.5658V14.0882C17.5658 13.098 17.5486 11.8248 16.1872 11.8248C14.8066 11.8248 14.5959 12.904 14.5959 14.0171V18.2392H11.9441V9.70331Z" fill="white"/>
</svg>
