<svg width="385" height="374" viewBox="0 0 385 374" fill="none" xmlns="http://www.w3.org/2000/svg">
<g id="person" clip-path="url(#clip0_1_400)">
<g id="Group">
<path id="Vector" d="M49.527 95.8363H370.35C378.438 95.8363 385 102.404 385 110.5V358.625C385 366.721 378.438 373.289 370.35 373.289H49.527C41.4385 373.289 34.8766 366.721 34.8766 358.625V110.5C34.8766 102.404 41.4385 95.8363 49.527 95.8363Z" fill="#F2F5F4"/>
<g id="Group_2">
<path id="Vector_2" d="M33.3289 78.1911H354.152C362.24 78.1911 368.802 84.759 368.802 92.8548V340.98C368.802 349.076 362.24 355.644 354.152 355.644H33.3289C25.2405 355.644 18.6786 349.076 18.6786 340.98V92.8548C18.6786 84.7484 25.2405 78.1911 33.3289 78.1911Z" fill="white" stroke="#D7D7D7" stroke-miterlimit="10"/>
<path id="Vector_3" d="M33.3289 84.377H354.152C362.24 84.377 368.802 90.9449 368.802 99.0407V110.426H18.6786V99.0407C18.6786 90.9449 25.2405 84.377 33.3289 84.377Z" fill="#F2F5F4"/>
<path id="Vector_4" d="M33.3289 78.1911H354.152C362.24 78.1911 368.802 84.759 368.802 92.8548V104.24H18.6786V92.8548C18.6786 84.7484 25.2405 78.1911 33.3289 78.1911Z" fill="white"/>
<path id="Vector_5" d="M350.802 95.6453C348.355 95.6453 346.371 93.6596 346.371 91.2101C346.371 88.7607 348.355 86.775 350.802 86.775C353.249 86.775 355.233 88.7607 355.233 91.2101C355.233 93.6596 353.249 95.6453 350.802 95.6453Z" fill="#D57548"/>
<path id="Vector_6" d="M328.731 91.2101C328.731 93.6612 330.713 95.6453 333.162 95.6453C335.611 95.6453 337.593 93.6612 337.593 91.2101C337.593 88.7591 335.611 86.775 333.162 86.775C330.713 86.775 328.731 88.7697 328.731 91.2101Z" fill="#FFB72F"/>
<path id="Vector_7" d="M311.091 91.2101C311.091 93.6612 313.074 95.6453 315.522 95.6453C317.971 95.6453 319.953 93.6612 319.953 91.2101C319.953 88.7591 317.971 86.775 315.522 86.775C313.074 86.7856 311.091 88.7697 311.091 91.2101Z" fill="#AABC95"/>
</g>
<g id="Group_3">
<path id="Vector_8" d="M125.333 126.649H57.8274" stroke="#F2F5F4" stroke-width="5" stroke-miterlimit="10" stroke-linecap="round" stroke-linejoin="round"/>
<path id="Vector_9" d="M125.333 139.753H57.8274" stroke="#F2F5F4" stroke-width="5" stroke-miterlimit="10" stroke-linecap="round" stroke-linejoin="round"/>
<path id="Vector_10" d="M125.333 152.857H57.8274" stroke="#F2F5F4" stroke-width="5" stroke-miterlimit="10" stroke-linecap="round" stroke-linejoin="round"/>
<path id="Vector_11" d="M125.333 165.971H57.8274" stroke="#F2F5F4" stroke-width="5" stroke-miterlimit="10" stroke-linecap="round" stroke-linejoin="round"/>
<path id="Vector_12" d="M125.333 179.075H57.8274" stroke="#F2F5F4" stroke-width="5" stroke-miterlimit="10" stroke-linecap="round" stroke-linejoin="round"/>
<path id="Vector_13" d="M342.639 205.283H57.8274" stroke="#F2F5F4" stroke-width="5" stroke-miterlimit="10" stroke-linecap="round" stroke-linejoin="round"/>
<path id="Vector_14" d="M342.639 218.387H57.8274" stroke="#F2F5F4" stroke-width="5" stroke-miterlimit="10" stroke-linecap="round" stroke-linejoin="round"/>
<path id="Vector_15" d="M342.639 231.502H57.8274" stroke="#F2F5F4" stroke-width="5" stroke-miterlimit="10" stroke-linecap="round" stroke-linejoin="round"/>
<path id="Vector_16" d="M342.639 244.605H57.8274" stroke="#F2F5F4" stroke-width="5" stroke-miterlimit="10" stroke-linecap="round" stroke-linejoin="round"/>
<path id="Vector_17" d="M342.639 257.709H57.8274" stroke="#F2F5F4" stroke-width="5" stroke-miterlimit="10" stroke-linecap="round" stroke-linejoin="round"/>
<path id="Vector_18" d="M221.991 278.856H120.16" stroke="#F2F5F4" stroke-width="5" stroke-miterlimit="10" stroke-linecap="round" stroke-linejoin="round"/>
<path id="Vector_19" d="M221.991 291.971H120.16" stroke="#F2F5F4" stroke-width="5" stroke-miterlimit="10" stroke-linecap="round" stroke-linejoin="round"/>
<path id="Vector_20" d="M221.991 305.075H120.16" stroke="#F2F5F4" stroke-width="5" stroke-miterlimit="10" stroke-linecap="round" stroke-linejoin="round"/>
<path id="Vector_21" d="M221.991 318.178H150.807" stroke="#F2F5F4" stroke-width="5" stroke-miterlimit="10" stroke-linecap="round" stroke-linejoin="round"/>
<path id="Vector_22" d="M221.991 331.282H150.807" stroke="#F2F5F4" stroke-width="5" stroke-miterlimit="10" stroke-linecap="round" stroke-linejoin="round"/>
<path id="Vector_23" d="M45.1064 275.047H109.846V332.556H45.1064V275.047Z" stroke="#F2F5F4" stroke-width="5" stroke-miterlimit="10" stroke-linecap="round" stroke-linejoin="round"/>
<path id="Vector_24" d="M277.74 126.554H342.479V184.062H277.74V126.554Z" stroke="#F2F5F4" stroke-width="5" stroke-miterlimit="10" stroke-linecap="round" stroke-linejoin="round"/>
</g>
</g>
<g id="Group_4">
<path id="Vector_25" d="M168.479 320.873H288.819C315.565 318.157 310.317 288.671 280.19 274.654C279.469 274.304 278.716 273.965 277.964 273.646L180.044 269.869C178.359 270.803 176.578 271.853 174.797 273.031C174.701 273.095 174.616 273.158 174.51 273.211C156.224 285.286 135.764 308.831 168.479 320.873Z" fill="#FBD675"/>
<path id="Vector_26" d="M295.847 355.633H156.065C165.065 308.374 182.726 283.217 182.726 283.217L268.094 278.124C288.363 298.114 294.215 333.553 295.847 355.633Z" fill="black"/>
<path id="Vector_27" d="M114.934 251.46C118.771 282.018 175.221 284.978 165.585 242.048L114.934 251.46Z" fill="#F3C755"/>
<path id="Vector_28" d="M119.397 238.632L154.751 271.301C166.295 259.354 209.09 196.349 217.104 166.884C220.539 154.268 213.723 141.101 201.415 136.708C196.306 134.883 190.931 134.83 186.023 136.262C180.67 137.822 175.867 141.132 172.517 145.928L119.397 238.632Z" fill="#F3C755"/>
<g id="Group_5">
<path id="Vector_29" d="M71.7038 172.412L80.3753 178.577C82.2199 179.882 84.7746 179.457 86.0785 177.611L91.2623 170.3C92.5662 168.454 92.1422 165.897 90.2976 164.592L81.6262 158.427C79.7817 157.122 77.2269 157.547 75.923 159.393L70.7392 166.704C69.4353 168.55 69.8593 171.107 71.7038 172.412Z" fill="#450000"/>
<path id="Vector_30" d="M53.004 165.229C68.4812 175.001 82.0714 230.96 114.107 254.845C115.909 256.182 117.796 257.243 119.715 258.07C136.273 265.009 156.054 252.786 156.054 233.433L132.319 211.734L78.8594 162.863L53.004 165.229Z" fill="#EFBFA9"/>
<path id="Vector_31" d="M119.715 258.07C136.273 265.009 156.054 252.786 156.054 233.433L132.319 211.734C147.733 240.69 139.358 262.092 119.736 258.06C119.736 258.049 119.736 258.049 119.715 258.07Z" fill="#ECB298"/>
<g id="Group_6">
<path id="Vector_32" d="M78.87 162.852L84.7534 177.293C59.1101 189.983 40.8025 178.057 29.4702 176.359L44.4704 145.939L78.87 162.852Z" fill="#EFBFA9"/>
<path id="Vector_33" d="M35.2265 159.626C35.7883 159.987 36.3077 160.454 36.7212 161.038C36.8378 161.197 36.9332 161.345 37.018 161.515C38.0039 163.202 37.9721 165.25 37.0498 166.873C36.7 167.499 36.2229 168.062 35.6293 168.518L31.9084 171.404L26.6398 175.468C25.8872 176.051 25.0285 176.391 24.1592 176.508C22.9295 176.688 21.6892 176.423 20.6292 175.754C20.0673 175.393 19.5585 174.916 19.145 174.332C17.6397 172.21 17.9471 169.346 19.7599 167.563L19.7705 167.552C19.8659 167.457 19.9825 167.361 20.0885 167.276L28.8554 160.019C28.9402 159.945 29.025 159.881 29.1204 159.817C30.9756 158.47 33.4031 158.47 35.2265 159.626Z" fill="#EFBFA9"/>
<path id="Vector_34" d="M0.0635986 146.013C-0.371033 143.403 1.5265 140.984 4.16611 140.793L26.8942 139.138L49.2089 145.578L45.435 164.772L20.8518 150.279L4.35691 149.759C2.21555 149.684 0.424026 148.114 0.0635986 146.013Z" fill="#EFBFA9"/>
<path id="Vector_35" d="M49.1983 145.578L44.6294 144.252L27.3501 147.297L24.4243 152.39L46.4951 164.815L49.1983 145.578Z" fill="#E89076"/>
<path id="Vector_36" d="M23.5868 183.627C24.6893 185.144 26.555 186.015 28.5479 185.76L39.8272 184.243C42.7212 183.85 44.8096 181.208 44.5127 178.29C44.4279 177.452 44.1311 176.688 43.7177 176.009C43.6435 175.871 43.5693 175.765 43.4845 175.659C43.4209 175.574 43.3467 175.468 43.2619 175.383C42.0746 173.929 40.1664 173.144 38.1841 173.494L26.979 175.372C25.3889 175.659 24.0532 176.635 23.3112 177.961C23.2051 178.152 23.1097 178.354 23.0143 178.555C22.6751 179.288 22.5267 180.136 22.6115 180.996C22.7069 182.014 23.0567 182.906 23.5868 183.627Z" fill="#EFBFA9"/>
<path id="Vector_37" d="M23.3112 177.972C24.0956 178.598 25.0709 179.001 26.1628 179.086L37.495 179.956C40.3255 180.179 43.7495 178.354 43.7177 174.523C42.5304 173.07 40.1664 173.155 38.1947 173.505L26.9896 175.383C25.3889 175.669 24.0532 176.646 23.3112 177.972Z" fill="#E89076"/>
<path id="Vector_38" d="M27.0427 172.571C27.8165 173.823 29.1098 174.757 30.6893 175.012L38.4491 176.083C41.3431 176.55 44.0781 174.608 44.6188 171.744C44.8414 170.47 44.64 169.25 44.0676 168.2C44.0252 168.094 43.9615 167.977 43.8979 167.892C43.0605 166.523 41.6612 165.547 39.9438 165.335L32.1311 164.613C30.7954 164.454 29.4915 164.815 28.4738 165.547C27.4031 166.29 26.6398 167.425 26.3642 168.794C26.0886 170.141 26.3642 171.468 27.0427 172.571Z" fill="#E89076"/>
<path id="Vector_39" d="M41.8732 169.144C41.9368 169.239 42.011 169.335 42.0746 169.441C42.1594 169.568 42.2124 169.696 42.2866 169.802L42.276 169.812C42.7743 170.725 42.9969 171.797 42.8802 172.921C42.5728 175.829 39.9969 177.972 37.071 177.738L25.7388 176.89C25.1875 176.837 24.6681 176.72 24.1699 176.518C23.2582 176.147 22.4631 175.521 21.9013 174.746C21.138 173.696 20.7564 172.391 20.926 171.011C21.032 170.226 21.2865 169.526 21.6681 168.889C21.9755 168.412 22.3465 167.977 22.7918 167.616C23.7458 166.81 25.0179 166.343 26.3536 166.396L37.0498 166.873L37.7389 166.905C39.4562 166.99 40.9191 167.849 41.8732 169.144Z" fill="#EFBFA9"/>
<path id="Vector_40" d="M36.9544 166.81L37.6434 166.841C39.3608 166.926 40.8237 167.786 41.7778 169.08C41.8414 169.176 41.9156 169.271 41.9792 169.377C42.064 169.505 42.117 169.632 42.1912 169.738L42.1806 169.749C41.0463 171.818 38.6081 172.964 36.1911 172.391L31.813 171.34L22.3359 169.07C22.0709 169.006 21.8059 168.932 21.5727 168.815C20.82 168.518 20.1945 168.062 19.6645 167.499L19.6751 167.489C19.7705 167.393 19.8871 167.298 19.9931 167.213L28.76 159.955C28.8448 159.881 28.9402 159.817 29.025 159.754L36.912 161.441C37.9085 163.138 37.8767 165.186 36.9544 166.81Z" fill="#E89076"/>
<path id="Vector_41" d="M35.8519 151.69C36.647 152.199 37.3148 152.899 37.7707 153.791C39.117 156.411 38.1205 159.616 35.5657 161.038L32.3536 162.82L25.6009 166.523C24.5939 167.085 23.4702 167.276 22.4101 167.128C21.6468 167.054 20.9154 166.778 20.2581 166.364C19.4631 165.855 18.8058 165.144 18.3712 164.242C17.1627 161.791 18.0426 158.82 20.3853 157.419L23.555 155.541L26.9154 153.536L30.1699 151.605C31.9826 150.512 34.177 150.629 35.8519 151.69Z" fill="#EFBFA9"/>
<path id="Vector_42" d="M26.5232 163.796C27.0956 165.154 28.2299 166.279 29.7459 166.767L37.2512 169.017C40.0392 169.918 43.0392 168.422 44.0039 165.674C44.4173 164.443 44.4067 163.213 44.0039 162.088C43.9827 161.982 43.9297 161.855 43.8873 161.759C43.2619 160.274 42.0322 159.096 40.3785 158.629L32.7671 156.719C31.4738 156.358 30.1275 156.517 29.0038 157.08C27.8377 157.642 26.8942 158.661 26.4172 159.955C25.9508 161.239 26.0144 162.597 26.5232 163.796Z" fill="#E89076"/>
<path id="Vector_43" d="M21.0214 165.08C21.6999 166.396 22.919 167.425 24.4667 167.786L35.5445 170.364C38.3961 171.043 41.2689 169.314 42.0216 166.502C42.3396 165.25 42.223 164.019 41.746 162.926C41.7142 162.82 41.6506 162.703 41.6082 162.608C40.8767 161.175 39.5516 160.104 37.8661 159.754L26.7035 157.504C25.3784 157.25 24.0532 157.504 22.9826 158.162C21.8589 158.82 21.0108 159.902 20.6292 161.239C20.2582 162.576 20.4278 163.924 21.0214 165.08Z" fill="#EFBFA9"/>
<g id="Group_7">
<g id="Group_8">
<path id="Vector_44" d="M72.4883 165.579L47.3008 151.032L29.8943 154.501L36.0215 163.223L43.1983 163.934C43.2089 163.924 53.9793 185.155 72.4883 165.579Z" fill="#E89076"/>
<path id="Vector_45" d="M29.9049 154.501L25.5798 163.849C24.6363 165.876 25.5055 168.295 27.5197 169.261C29.3112 170.12 31.4632 169.579 32.6187 167.966L36.0321 163.223L29.9049 154.501Z" fill="#E89076"/>
</g>
<g id="Group_9">
<path id="Vector_46" d="M78.87 162.852L49.1983 145.578L28.6433 149.599L35.8413 159.913L44.3113 160.783C44.3113 160.783 56.9369 185.887 78.87 162.852Z" fill="#EFBFA9"/>
<path id="Vector_47" d="M26.9049 153.547L33.6151 160.125L32.343 162.82L30.6681 166.353C30.5833 166.544 30.4773 166.735 30.3819 166.895C29.2582 168.677 27.0957 169.537 25.0285 168.953C23.926 168.656 23.025 167.998 22.3995 167.128C21.5727 166.003 21.244 164.539 21.6151 163.096L23.5444 155.541L26.9049 153.547Z" fill="#E89076"/>
<path id="Vector_48" d="M28.6434 149.599L23.502 160.613C22.3889 163.011 23.396 165.855 25.7705 167.011C27.8801 168.04 30.4243 167.404 31.8024 165.494L35.8519 159.902L28.6434 149.599Z" fill="#EFBFA9"/>
</g>
</g>
</g>
<path id="Vector_49" d="M79.4212 162.215L64.7073 184.264L69.4565 191.681L87.393 168.603L79.4212 162.215Z" fill="#450000"/>
</g>
<path id="Vector_50" d="M165.585 308.905L258.055 309.064L291.649 309.128C291.649 309.128 285.533 294.273 280.19 274.665C275.706 258.187 271.783 238.367 272.494 221.156C272.907 210.875 274.253 200.073 274.243 188.996C274.232 181.961 280.105 133.323 274.243 128.845C260.727 118.532 221.864 116.887 224.196 119.094L193.751 136.421C192.044 142.268 175.56 165.144 172.91 178.396C172.687 179.394 172.507 180.433 172.337 181.452C171.807 184.922 171.468 188.466 171.5 192.084C171.489 193.092 171.51 194.153 171.648 195.224C171.712 196.752 171.881 198.344 172.136 199.893C173.62 209.06 177.881 218.164 186.797 226.154L186.659 226.769L186.638 226.907L180.723 249.921L174.786 273.063L174.627 273.678L165.585 308.905Z" fill="#FBD675"/>
<path id="Vector_51" d="M174.51 273.222L174.638 273.646L254.706 297.668L258.055 309.053L260.366 316.884L266.547 320.863H288.808C315.554 318.147 310.307 288.66 280.179 274.644C275.695 258.166 271.773 238.345 272.483 221.135C272.896 210.854 274.243 200.052 274.232 188.975L243.734 157.398L244.497 231.873L191.959 240.892L180.723 249.868L174.786 273.01C174.691 273.095 174.606 273.158 174.51 273.222Z" fill="#F3C755"/>
<g id="Group_10">
<g id="Group_11">
<path id="Vector_52" d="M222.85 201.103L240.182 228.202L257.525 201.103L240.182 173.993L222.85 201.103Z" stroke="#969696" stroke-miterlimit="10"/>
<path id="Vector_53" d="M188.355 201.103L205.698 228.202L223.041 201.103L205.698 173.993L188.355 201.103Z" stroke="#969696" stroke-miterlimit="10"/>
<path id="Vector_54" d="M153.871 201.103L171.214 228.202L188.546 201.103L171.214 173.993L153.871 201.103Z" stroke="#969696" stroke-miterlimit="10"/>
</g>
</g>
<g id="Group_12">
<path id="Vector_55" d="M170.747 63.8139C159.553 63.8139 150.478 54.731 150.478 43.5267C150.478 32.3224 159.553 23.2395 170.747 23.2395C181.941 23.2395 191.016 32.3224 191.016 43.5267C191.016 54.731 181.941 63.8139 170.747 63.8139Z" fill="#450000"/>
<path id="Vector_56" d="M191.398 40.8635C180.203 40.8635 171.129 31.7806 171.129 20.5763C171.129 9.37201 180.203 0.289124 191.398 0.289124C202.592 0.289124 211.666 9.37201 211.666 20.5763C211.666 31.7806 202.592 40.8635 191.398 40.8635Z" fill="#450000"/>
<path id="Vector_57" d="M217.889 48.2484C206.695 48.2484 197.62 39.1655 197.62 27.9612C197.62 16.7569 206.695 7.674 217.889 7.674C229.083 7.674 238.158 16.7569 238.158 27.9612C238.158 39.1655 229.083 48.2484 217.889 48.2484Z" fill="#450000"/>
<path id="Vector_58" d="M243.32 40.3436C251.504 61.3311 248.61 74.6896 235.391 83.4114L222.871 69.7346L230.366 36.8315L243.32 40.3436Z" fill="#450000"/>
<path id="Vector_59" d="M236.239 69.7346L231.479 120.835L193.454 146.565L192.913 83.56L236.239 69.7346Z" fill="#EFBFA9"/>
<path id="Vector_60" d="M242.451 84.0162L233.44 99.7728L227.801 87.7617L242.451 84.0162Z" fill="#450000"/>
<path id="Vector_61" d="M193.263 125.036C193.263 125.036 216.723 120.803 217.401 94.3084L192.913 102.287L193.263 125.036Z" fill="#E89076"/>
<path id="Vector_62" d="M177.585 32.5343C166.242 46.4552 164.758 64.7901 164.758 64.7901L177.055 66.7318L186.405 37.2453L177.585 32.5343Z" fill="#450000"/>
<path id="Vector_63" d="M232.391 48.832L228.734 63.3258L227.059 69.9362L222.574 87.6768C220.147 97.2581 212.949 104.887 203.535 107.869L188.906 112.484C176.217 116.484 163.178 107.678 162.001 94.4145C161.132 84.6847 161.143 73.3315 164.843 61.2674C169.146 47.2616 180.373 36.3116 193.73 31.9401L193.783 31.9189L196.125 31.2186L196.38 31.1549C197.546 30.8472 198.754 30.6032 199.963 30.4016C202.825 29.8923 205.772 29.6801 208.762 29.765L218.228 30.0408C227.843 30.3273 234.755 39.4735 232.391 48.832Z" fill="#EFBFA9"/>
<path id="Vector_64" d="M165.754 83.5281C158.945 83.5281 153.425 77.4048 153.425 69.8513C153.425 62.2977 158.945 56.1744 165.754 56.1744C172.563 56.1744 178.083 62.2977 178.083 69.8513C178.083 77.4048 172.563 83.5281 165.754 83.5281Z" stroke="white" stroke-miterlimit="10"/>
<g id="Group_13">
<path id="Vector_65" d="M170.397 72.7267C170.058 76.1963 171.076 79.1354 172.655 79.2946C174.235 79.4431 175.793 76.7587 176.122 73.2785C176.461 69.8088 175.443 66.8697 173.864 66.7106C172.284 66.562 170.726 69.2571 170.397 72.7267Z" fill="black"/>
<path id="Vector_66" d="M180.426 67.5594C177.245 75.2096 172.009 76.7799 168.362 76.833C166.019 76.8648 164.1 78.6792 163.91 81.0135C163.666 84.0905 165.245 87.0296 167.959 88.5045L177.553 93.7248C182.938 95.5286 188.694 92.303 189.977 86.7643L194.323 68.0157L180.426 67.5594Z" fill="#EFBFA9"/>
<g id="Group_14">
<path id="Vector_67" d="M174.012 92.5046L174.595 91.4329L168.256 87.9846C165.754 86.6264 164.291 83.9207 164.524 81.0771C164.683 79.0505 166.348 77.4908 168.373 77.459C172.327 77.4059 177.722 75.6764 180.998 67.8035L179.864 67.3366C176.853 74.5941 171.945 76.1857 168.351 76.2282C165.691 76.2706 163.517 78.3078 163.305 80.971C163.04 84.2921 164.758 87.4646 167.673 89.0562L174.012 92.5046Z" fill="#E89076"/>
</g>
<path id="Vector_68" d="M191.461 75.8674C191.122 79.337 192.14 82.2761 193.719 82.4353C195.299 82.5838 196.857 79.8994 197.186 76.4191C197.525 72.9495 196.507 70.0104 194.928 69.8513C193.348 69.7027 191.79 72.3978 191.461 75.8674Z" fill="black"/>
<path id="Vector_69" d="M200.387 62.0738C208.274 65.3631 210.447 61.3099 204.786 57.8827C198.701 54.1902 190.571 57.9782 200.387 62.0738Z" fill="#450000"/>
<path id="Vector_70" d="M177.648 58.3708C183.807 57.3734 182.09 53.49 176.949 53.4369C171.415 53.3732 169.994 59.6122 177.648 58.3708Z" fill="#450000"/>
<path id="Vector_71" d="M177.532 95.0723L191.737 93.9795C191.737 93.9795 190.136 102.192 186.023 103.073C181.528 104.038 177.532 95.0723 177.532 95.0723Z" fill="white"/>
</g>
<path id="Vector_72" d="M196.952 89.8202C190.143 89.8202 184.624 83.6968 184.624 76.1433C184.624 68.5897 190.143 62.4664 196.952 62.4664C203.761 62.4664 209.281 68.5897 209.281 76.1433C209.281 83.6968 203.761 89.8202 196.952 89.8202Z" stroke="white" stroke-miterlimit="10"/>
<path id="Vector_73" d="M209.26 73.5862L223.062 69.6815" stroke="white" stroke-miterlimit="10"/>
<path id="Vector_74" d="M211.91 29.8923C204.458 47.5057 218.483 71.602 247.9 69.8513C260.282 44.8106 259.752 22.4119 211.91 29.8923Z" fill="#450000"/>
<path id="Vector_75" d="M222.013 71.8142C251.546 31.1974 266.886 95.518 223.476 92.1439L222.013 71.8142Z" fill="#EFBFA9"/>
<path id="Vector_76" d="M222.331 45.7974L221.779 79.91L224.642 81.8199L235.391 49.0229L222.331 45.7974Z" fill="#450000"/>
<path id="Vector_77" d="M220.709 33.5741C197.101 42.8264 175.581 35.1763 175.581 35.1763C175.581 35.1763 183.415 16.2897 220.709 33.5741Z" fill="#450000"/>
<path id="Vector_78" d="M250.55 37.4469C250.55 25.4359 263.801 31.1974 254.706 38.9748C270.66 36.8209 258.585 56.62 251.239 49.702" fill="#450000"/>
</g>
<path id="Vector_79" d="M191.991 147.233C186.871 119.36 213.066 113.46 232.857 105.322L243.744 119.338L191.991 147.233Z" fill="white"/>
<g id="Group_15">
<path id="Vector_80" d="M285.193 227.098C264.289 223.056 245.048 228.913 255.342 249.592L287.155 251.47L285.193 227.098Z" fill="#FBD675"/>
<path id="Vector_81" d="M289.858 286.962C346.307 301.573 337.18 240.977 303.575 231.894L289.858 286.962Z" fill="#FBD675"/>
</g>
<path id="Vector_82" d="M287.324 271.662L320.929 276.617C326.939 228.955 312.819 176.964 281.208 135.031C273.829 125.238 260.154 122.787 249.829 129.397C240.935 135.106 236.949 146.066 240.098 156.157L287.324 271.662Z" fill="#FBD675"/>
<g id="Group_16">
<g id="Group_17">
<path id="Vector_83" d="M120.351 202.896L122.969 199.575L122.98 199.596C123.287 199.235 123.701 198.97 124.241 198.896L174.627 192.232C176.101 192.041 177.563 192.625 178.507 193.771L232.635 260.107C233.578 261.275 232.984 263.025 231.522 263.365L196.815 271.461C195.394 271.789 193.899 271.376 192.85 270.357L123.648 202.885H120.351V202.896Z" fill="#E5EBEA"/>
<path id="Vector_84" d="M230.069 263.354L175.942 197.018C174.998 195.861 173.535 195.288 172.062 195.479L121.676 202.142C120.001 202.365 119.312 204.424 120.531 205.601L190.284 273.604C191.334 274.622 192.829 275.036 194.249 274.707L228.956 266.612C230.419 266.272 231.013 264.521 230.069 263.354Z" fill="white"/>
<path id="Vector_85" d="M166.329 235.206C161.723 231.008 159.804 225.611 162.042 223.15C164.281 220.688 169.83 222.096 174.436 226.294C179.042 230.491 180.961 235.889 178.722 238.35C176.483 240.811 170.935 239.403 166.329 235.206Z" fill="#E5EBEA"/>
<path id="Vector_86" d="M170.26 202.546C170.938 203.681 172.295 204.583 173.27 204.562C174.256 204.54 174.5 203.607 173.811 202.461C173.132 201.325 171.775 200.424 170.8 200.445C169.825 200.466 169.581 201.41 170.26 202.546Z" fill="#E5EBEA"/>
</g>
<g id="Group_18">
<path id="Vector_87" d="M192.15 265.879L146.312 234.568L205.2 239.003L210.182 258.739L192.15 265.879Z" fill="#EFBFA9"/>
<path id="Vector_88" d="M200.557 241.051L208.846 239.884C211.295 239.534 212.758 236.977 211.815 234.685L211.518 233.974C209.726 229.645 204.606 227.799 200.461 229.984C197.684 231.449 196.03 234.419 196.242 237.55C196.401 239.757 198.383 241.359 200.557 241.051Z" fill="#EFBFA9"/>
<path id="Vector_89" d="M182.355 240.69L146.323 234.579L145.899 233.518C144.213 229.337 140.789 226.122 136.528 224.722C135.839 224.488 135.404 223.841 135.425 223.151C135.425 223.045 135.446 222.939 135.468 222.822C136.114 219.947 138.68 218.016 141.5 218.079C141.966 218.09 142.443 218.175 142.931 218.292L145.072 219.034L145.284 219.109C148.973 220.392 151.782 223.395 152.821 227.151L181.422 240.266L182.355 240.69Z" fill="#EFBFA9"/>
<path id="Vector_90" d="M168.966 242.208L152.535 236.531C150.213 229.496 146.27 226.791 142.008 225.39C141.33 225.157 140.885 224.509 140.906 223.82C140.906 223.713 140.927 223.607 140.948 223.491C141.436 221.284 143.068 219.639 145.051 219.024L145.263 219.098C148.952 220.382 151.761 223.385 152.8 227.141L155.906 234.77L168.966 242.208Z" fill="#E89076"/>
<path id="Vector_91" d="M155.927 234.78L155.503 233.719C153.828 229.549 150.394 226.334 146.132 224.923C145.348 224.658 144.881 223.841 145.061 223.034C145.814 219.682 149.196 217.612 152.524 218.493L154.878 219.31C158.556 220.594 161.387 223.607 162.426 227.363L191.959 240.892L155.927 234.78Z" fill="#EFBFA9"/>
</g>
<path id="Vector_92" d="M276.045 242.197L203.419 249.561L192.15 265.879C192.15 265.879 241.804 290.814 288.342 287.716C308.473 286.379 315.522 260.309 298.794 249.03L296.165 247.258C290.261 243.269 283.137 241.486 276.045 242.197Z" fill="#EFBFA9"/>
</g>
<path id="Vector_93" d="M293.027 326.9L209.716 338.455L205.157 309.128L286.667 309.117L293.027 326.9Z" fill="white"/>
<path id="Vector_94" d="M198.701 309.128L193.422 338.455L163.231 326.9L169.581 309.128H198.701Z" fill="white"/>
</g>
</g>
<defs>
<clipPath id="clip0_1_400">
<rect width="385" height="373" fill="white" transform="matrix(-1 0 0 1 385 0.289124)"/>
</clipPath>
</defs>
</svg>
