<svg width="26" height="25" viewBox="0 0 26 25" fill="none" xmlns="http://www.w3.org/2000/svg">
<path fill-rule="evenodd" clip-rule="evenodd" d="M12.7459 0C5.91589 0 0.378326 5.53757 0.378326 12.3675C0.378326 19.1975 5.91589 24.7351 12.7459 24.7351C19.5758 24.7351 25.1134 19.1975 25.1134 12.3675C25.1134 5.53757 19.5758 0 12.7459 0ZM18.4782 8.41096C18.2927 10.3661 17.4868 15.1121 17.0776 17.3022C16.9044 18.2298 16.5623 18.54 16.2325 18.5699C15.5141 18.6358 14.9689 18.0947 14.2733 17.6392C13.1849 16.926 12.5696 16.4818 11.5132 15.7851C10.2919 14.9802 11.0835 14.538 11.7791 13.8156C11.9616 13.6259 15.1256 10.7474 15.1874 10.4866C15.1946 10.4537 15.2029 10.332 15.1297 10.2681C15.0565 10.2043 14.9504 10.2259 14.8741 10.2434C14.7649 10.2682 13.0262 11.4173 9.65707 13.6909C9.1634 14.0299 8.71611 14.1948 8.3152 14.1866C7.87409 14.1773 7.02485 13.9372 6.39307 13.7311C5.61907 13.4796 5.00276 13.3456 5.05635 12.9189C5.08418 12.6963 5.39027 12.4685 5.97567 12.2356C9.58081 10.6649 11.9853 9.62916 13.188 9.12827C16.6231 7.69982 17.3363 7.45144 17.8021 7.4432C18.3855 7.43495 18.5256 7.91626 18.4782 8.41096Z" fill="#B1B1B1"/>
</svg>
